<?xml version="1.0" encoding="UTF-8"?><svg id="Layer_1" xmlns="http://www.w3.org/2000/svg" xmlns:xlink="http://www.w3.org/1999/xlink" viewBox="0 0 16 16"><defs><style>.cls-1{clip-path:url(#clippath);}.cls-2{fill:none;}.cls-2,.cls-3,.cls-4,.cls-5{stroke-width:0px;}.cls-6{opacity:.1;}.cls-3{fill:#29abe2;}.cls-4{fill:#1b1464;}.cls-5{fill:#fff;}</style><clipPath id="clippath"><rect class="cls-2" width="16" height="16"/></clipPath></defs><rect class="cls-3" width="16" height="16"/><g class="cls-1"><g id="Cookiebot-v2"><circle class="cls-3" cx="8" cy="8" r="7.5"/><g class="cls-6"><path class="cls-4" d="m9.67,6.47c-.31.26-.62.5-.93.76-.29-.23-.63-.43-1.03-.51-.67-.14-1.28,0-1.8.42-.53.43-.8,1.01-.79,1.69.03,1.05.79,1.89,1.79,2.06.68.11,1.25-.08,1.75-.52.1-.08.14-.06.23.01.25.23.51.44.77.66-1.06,1.22-3.14,1.52-4.61.27-1.5-1.28-1.63-3.59-.09-5.02,1.32-1.23,3.5-1.15,4.71.19Z"/><path class="cls-4" d="m12.79,8.69c.04,1.14-.96,2.06-2.06,2.04-1.13-.02-2.01-.91-2.01-2.05,0-1.1.84-2.01,2.04-2.02,1.12,0,2.07.92,2.03,2.03Zm-2.03-1.04c-.62-.05-1.06.51-1.06,1.02,0,.59.5,1.09,1.06,1.08.54,0,1.08-.47,1.07-1.07,0-.52-.38-1.03-1.07-1.03Z"/></g><path class="cls-5" d="m9.33,6.12c-.31.26-.62.5-.93.76-.29-.23-.63-.43-1.03-.51-.67-.14-1.28,0-1.8.42-.53.43-.8,1.01-.79,1.69.03,1.05.79,1.89,1.79,2.06.68.11,1.25-.08,1.75-.52.1-.08.14-.06.23.01.25.23.51.44.77.66-1.06,1.22-3.14,1.52-4.61.27-1.5-1.28-1.63-3.59-.09-5.02,1.32-1.23,3.5-1.15,4.71.19Z"/><path class="cls-5" d="m12.45,8.35c.04,1.14-.96,2.06-2.06,2.04-1.13-.02-2.01-.91-2.01-2.05,0-1.1.84-2.01,2.04-2.02,1.12,0,2.07.92,2.03,2.03Zm-2.03-1.04c-.62-.05-1.06.51-1.06,1.02,0,.59.5,1.09,1.06,1.08.54,0,1.08-.47,1.07-1.07,0-.52-.38-1.03-1.07-1.03Z"/></g></g></svg>